<?xml version="1.0" encoding="UTF-8"?>
<svg xmlns="http://www.w3.org/2000/svg" width="1800" height="780" viewBox="0 0 1800 780">
<rect width="100%" height="100%" fill="#ffffff"/>
<style>text{font-family:Arial,Helvetica,sans-serif;fill:#111827}.title{font-size:30px;font-weight:700}.subtitle{font-size:15px;fill:#6b7280}.head{font-size:19px;font-weight:700}.body{font-size:19px}.gene{font-size:21px;font-style:italic}.bold{font-weight:700}.axis{stroke:#94a3b8;stroke-width:1}.ref{stroke:#64748b;stroke-width:1.4;stroke-dasharray:5 5}.ci{stroke-width:3}.tick{font-size:15px;fill:#475569}.note{font-size:15px;fill:#475569}</style>
<text x="900" y="38" text-anchor="middle" class="title">Dual-tissue MR effect estimates for four prioritised candidates</text>
<text x="900" y="65" text-anchor="middle" class="subtitle">Blood and brain BA9 odds ratios with 95% confidence intervals; forest panels use a log10 odds-ratio scale</text>
<rect x="35" y="135" width="1730" height="64" fill="#f1f5f9"/>
<line x1="35" y1="199" x2="1765" y2="199" stroke="#111827" stroke-width="1.2"/>
<text x="55" y="173" class="head">Gene</text>
<text x="530" y="173" text-anchor="middle" class="head">Blood</text>
<text x="1105" y="173" text-anchor="middle" class="head">Brain BA9</text>
<text x="1375" y="163" text-anchor="middle" class="head">Blood MR OR</text><text x="1375" y="185" text-anchor="middle" class="head">(95% CI)</text>
<text x="1580" y="163" text-anchor="middle" class="head">Brain BA9 MR OR</text><text x="1580" y="185" text-anchor="middle" class="head">(95% CI)</text>
<line x1="300" y1="199" x2="300" y2="644" class="axis"/>
<text x="300" y="667" text-anchor="middle" class="tick">0.1</text>
<line x1="530" y1="199" x2="530" y2="644" class="ref"/>
<text x="530" y="667" text-anchor="middle" class="tick">1</text>
<line x1="760" y1="199" x2="760" y2="644" class="axis"/>
<text x="760" y="667" text-anchor="middle" class="tick">10</text>
<line x1="875" y1="199" x2="875" y2="644" class="axis"/>
<text x="875" y="667" text-anchor="middle" class="tick">0.1</text>
<line x1="1105" y1="199" x2="1105" y2="644" class="ref"/>
<text x="1105" y="667" text-anchor="middle" class="tick">1</text>
<line x1="1335" y1="199" x2="1335" y2="644" class="axis"/>
<text x="1335" y="667" text-anchor="middle" class="tick">10</text>
<rect x="35" y="199" width="1730" height="105" fill="#f8fafc"/>
<text x="55" y="258.5" class="gene bold" fill="#174EA6">SMPD2</text>
<line x1="537.95" y1="251.5" x2="573.5" y2="251.5" stroke="#174EA6" class="ci"/>
<line x1="537.95" y1="241.5" x2="537.95" y2="261.5" stroke="#174EA6" stroke-width="2"/>
<line x1="573.5" y1="241.5" x2="573.5" y2="261.5" stroke="#174EA6" stroke-width="2"/>
<rect x="547.72" y="243.5" width="16" height="16" fill="#174EA6"/>
<line x1="1114.78" y1="251.5" x2="1140.99" y2="251.5" stroke="#174EA6" class="ci"/>
<line x1="1114.78" y1="241.5" x2="1114.78" y2="261.5" stroke="#174EA6" stroke-width="2"/>
<line x1="1140.99" y1="241.5" x2="1140.99" y2="261.5" stroke="#174EA6" stroke-width="2"/>
<rect x="1119.89" y="243.5" width="16" height="16" fill="#174EA6"/>
<text x="1375" y="258.5" text-anchor="middle" class="body">1.29 (1.08-1.55)</text>
<text x="1580" y="258.5" text-anchor="middle" class="body">1.26 (1.10-1.43)</text>
<text x="55" y="363.5" class="gene bold" fill="#2563EB">FDXR</text>
<line x1="570.28" y1="356.5" x2="724.25" y2="356.5" stroke="#2563EB" class="ci"/>
<line x1="570.28" y1="346.5" x2="570.28" y2="366.5" stroke="#2563EB" stroke-width="2"/>
<line x1="724.25" y1="346.5" x2="724.25" y2="366.5" stroke="#2563EB" stroke-width="2"/>
<rect x="639.27" y="348.5" width="16" height="16" fill="#2563EB"/>
<line x1="1113.99" y1="356.5" x2="1148.37" y2="356.5" stroke="#2563EB" class="ci"/>
<line x1="1113.99" y1="346.5" x2="1113.99" y2="366.5" stroke="#2563EB" stroke-width="2"/>
<line x1="1148.37" y1="346.5" x2="1148.37" y2="366.5" stroke="#2563EB" stroke-width="2"/>
<rect x="1123.18" y="348.5" width="16" height="16" fill="#2563EB"/>
<text x="1375" y="363.5" text-anchor="middle" class="body">3.23 (1.50-6.99)</text>
<text x="1580" y="363.5" text-anchor="middle" class="body">1.30 (1.09-1.54)</text>
<rect x="35" y="409" width="1730" height="105" fill="#f8fafc"/>
<text x="55" y="468.5" class="gene " fill="#4B5563">ASAP3</text>
<line x1="372.66" y1="461.5" x2="503.07" y2="461.5" stroke="#4B5563" class="ci"/>
<line x1="372.66" y1="451.5" x2="372.66" y2="471.5" stroke="#4B5563" stroke-width="2"/>
<line x1="503.07" y1="451.5" x2="503.07" y2="471.5" stroke="#4B5563" stroke-width="2"/>
<rect x="429.86" y="453.5" width="16" height="16" fill="#4B5563"/>
<line x1="1046.26" y1="461.5" x2="1093.14" y2="461.5" stroke="#4B5563" class="ci"/>
<line x1="1046.26" y1="451.5" x2="1046.26" y2="471.5" stroke="#4B5563" stroke-width="2"/>
<line x1="1093.14" y1="451.5" x2="1093.14" y2="471.5" stroke="#4B5563" stroke-width="2"/>
<rect x="1061.7" y="453.5" width="16" height="16" fill="#4B5563"/>
<text x="1375" y="468.5" text-anchor="middle" class="body">0.40 (0.21-0.76)</text>
<text x="1580" y="468.5" text-anchor="middle" class="body">0.70 (0.56-0.89)</text>
<text x="55" y="573.5" class="gene " fill="#4B5563">TCEA3</text>
<line x1="439.92" y1="566.5" x2="527.22" y2="566.5" stroke="#4B5563" class="ci"/>
<line x1="439.92" y1="556.5" x2="439.92" y2="576.5" stroke="#4B5563" stroke-width="2"/>
<line x1="527.22" y1="556.5" x2="527.22" y2="576.5" stroke="#4B5563" stroke-width="2"/>
<rect x="475.57" y="558.5" width="16" height="16" fill="#4B5563"/>
<line x1="1085.26" y1="566.5" x2="1101.16" y2="566.5" stroke="#4B5563" class="ci"/>
<line x1="1085.26" y1="556.5" x2="1085.26" y2="576.5" stroke="#4B5563" stroke-width="2"/>
<line x1="1101.16" y1="556.5" x2="1101.16" y2="576.5" stroke="#4B5563" stroke-width="2"/>
<rect x="1085.21" y="558.5" width="16" height="16" fill="#4B5563"/>
<text x="1375" y="573.5" text-anchor="middle" class="body">0.63 (0.41-0.97)</text>
<text x="1580" y="573.5" text-anchor="middle" class="body">0.89 (0.82-0.96)</text>
<rect x="55" y="620" width="18" height="18" fill="#174EA6"/><text x="85" y="635" class="note">SMPD2 primary candidate</text>
<rect x="315" y="620" width="18" height="18" fill="#2563EB"/><text x="345" y="635" class="note">FDXR secondary, prior-sensitive candidate</text>
<rect x="750" y="620" width="18" height="18" fill="#4B5563"/><text x="780" y="635" class="note">PP4 &gt; 0.40 exploratory candidates</text>
<line x1="35" y1="680" x2="1765" y2="680" stroke="#111827" stroke-width="1.4"/>
<text x="55" y="710" class="note">OR, odds ratio; CI, confidence interval; BA9, Brodmann area 9. SMPD2 blood estimate reflects the final rs7372 single-SNP Wald ratio result.</text>
</svg>
